<svg width="27" height="26" viewBox="0 0 27 26" fill="none" xmlns="http://www.w3.org/2000/svg">
<path d="M5.06976 23.1562C4.62101 23.1562 4.25726 22.7925 4.25726 22.3438V3.35156C4.25726 1.50348 5.76074 0 7.60883 0H22.1323C22.581 0 22.9448 0.363797 22.9448 0.8125V19.5C22.9448 19.9487 22.581 20.3125 22.1323 20.3125C21.6835 20.3125 21.3198 19.9487 21.3198 19.5V1.625H7.60883C6.65678 1.625 5.88226 2.39952 5.88226 3.35156V22.3438C5.88226 22.7925 5.51852 23.1562 5.06976 23.1562Z" fill="black"/>
<path d="M22.1323 26H7.91351C5.89745 26 4.25726 24.3598 4.25726 22.3438C4.25726 20.3277 5.89745 18.6875 7.91351 18.6875H22.1323C22.581 18.6875 22.9448 19.0513 22.9448 19.5C22.9448 19.9487 22.581 20.3125 22.1323 20.3125H7.91351C6.79348 20.3125 5.88226 21.2237 5.88226 22.3438C5.88226 23.4638 6.79348 24.375 7.91351 24.375H22.1323C22.581 24.375 22.9448 24.7388 22.9448 25.1875C22.9448 25.6362 22.581 26 22.1323 26Z" fill="black"/>
<path d="M22.1323 23.1562H7.91351C7.46476 23.1562 7.10101 22.7925 7.10101 22.3438C7.10101 21.895 7.46476 21.5312 7.91351 21.5312H22.1323C22.581 21.5312 22.9448 21.895 22.9448 22.3438C22.9448 22.7925 22.581 23.1562 22.1323 23.1562Z" fill="black"/>
<path d="M8.72601 20.3125C8.27726 20.3125 7.91351 19.9487 7.91351 19.5V0.8125C7.91351 0.363797 8.27726 0 8.72601 0C9.17477 0 9.53851 0.363797 9.53851 0.8125V19.5C9.53851 19.9487 9.17477 20.3125 8.72601 20.3125Z" fill="black"/>
</svg>
