<svg width="27" height="26" viewBox="0 0 27 26" fill="none" xmlns="http://www.w3.org/2000/svg">
<g clip-path="url(#clip0)">
<path d="M24.5981 16.333C24.2404 16.333 23.9505 16.6229 23.9505 16.9806V22.73C23.9493 23.8025 23.0804 24.6716 22.0079 24.6726H3.83875C2.76627 24.6716 1.89741 23.8025 1.89614 22.73V5.8559C1.89741 4.78367 2.76627 3.91456 3.83875 3.91329H9.58815C9.94581 3.91329 10.2357 3.62342 10.2357 3.26576C10.2357 2.90835 9.94581 2.61823 9.58815 2.61823H3.83875C2.05145 2.62025 0.603098 4.0686 0.601074 5.8559V22.7302C0.603098 24.5175 2.05145 25.9659 3.83875 25.9679H22.0079C23.7952 25.9659 25.2436 24.5175 25.2456 22.7302V16.9806C25.2456 16.6229 24.9557 16.333 24.5981 16.333Z" fill="black"/>
<path d="M24.9892 0.952066C23.8512 -0.185926 22.0062 -0.185926 20.8682 0.952066L9.3158 12.5045C9.23663 12.5837 9.17947 12.6818 9.14962 12.7896L7.63044 18.2741C7.56796 18.499 7.63145 18.7398 7.79637 18.905C7.96154 19.0699 8.20235 19.1334 8.42721 19.0712L13.9118 17.5517C14.0195 17.5219 14.1177 17.4647 14.1968 17.3855L25.749 5.83286C26.8852 4.69411 26.8852 2.85066 25.749 1.71191L24.9892 0.952066ZM10.7267 12.9254L20.1815 3.47037L23.2307 6.5196L13.7757 15.9746L10.7267 12.9254ZM10.1176 14.1476L12.5537 16.584L9.18402 17.5176L10.1176 14.1476ZM24.8334 4.9172L24.1466 5.60395L21.0971 2.55446L21.7841 1.86772C22.4162 1.23562 23.4412 1.23562 24.0733 1.86772L24.8334 2.62756C25.4645 3.26043 25.4645 4.28459 24.8334 4.9172Z" fill="black"/>
</g>
<defs>
<clipPath id="clip0">
<rect width="26" height="26" fill="white" transform="translate(0.601074)"/>
</clipPath>
</defs>
</svg>
