<svg width="27" height="26" viewBox="0 0 27 26" fill="none" xmlns="http://www.w3.org/2000/svg">
<g clip-path="url(#clip0)">
<path d="M13.5994 8.125L13.597 13.8094C13.597 14.0252 13.6827 14.2315 13.8351 14.3838L17.9015 18.4495L19.0505 17.3006L15.222 13.4729L15.2244 8.125H13.5994Z" fill="black"/>
<path d="M15.226 1.625C9.50691 1.625 4.77362 5.87238 3.98088 11.375H0.601013L4.66351 15.4375L8.72601 11.375H5.62278C6.4001 6.77117 10.4043 3.25002 15.226 3.25002C20.6025 3.25002 24.976 7.62354 24.976 13C24.976 18.3765 20.6025 22.75 15.226 22.75C12.2038 22.75 9.40128 21.3821 7.53741 18.997L6.25678 19.9967C8.43083 22.7786 11.6999 24.375 15.226 24.375C21.4983 24.375 26.601 19.2715 26.601 13C26.601 6.72857 21.4983 1.62505 15.226 1.625Z" fill="black"/>
</g>
<defs>
<clipPath id="clip0">
<rect width="26" height="26" fill="white" transform="translate(0.601013)"/>
</clipPath>
</defs>
</svg>
