<svg width="27" height="26" viewBox="0 0 27 26" fill="none" xmlns="http://www.w3.org/2000/svg">
<g clip-path="url(#clip0)">
<path d="M9.95953 7.33794L9.95952 7.33793C9.51393 6.95372 8.80078 7.23732 8.79745 7.86905V11.3833C8.79745 14.0319 10.9524 16.1869 13.6011 16.1869C16.2497 16.1869 18.4047 14.0319 18.4047 11.3833V9.76521C18.4047 9.45689 18.6547 9.20692 18.963 9.20692C19.2713 9.20692 19.5213 9.45689 19.5213 9.76521C19.5213 9.77244 19.5214 11.3569 19.5211 11.4297H19.5211C19.4912 15.2905 15.8063 18.1039 12.0757 17.1039C11.9713 17.8897 11.5443 18.5605 10.9411 18.9969C11.9647 20.5926 14.1707 20.9399 15.6391 19.7038C15.8748 19.5053 16.2272 19.5353 16.4258 19.7714C16.6243 20.0072 16.5941 20.3594 16.3582 20.558L16.3582 20.558C14.326 22.2687 11.2528 21.7336 9.9148 19.459C9.71259 19.5041 9.50649 19.5267 9.29926 19.5267C7.37528 19.5267 5.8186 21.0835 5.8186 23.0073V25.5668C5.8186 25.8751 5.56863 26.125 5.26031 26.125C4.95199 26.125 4.70203 25.8751 4.70203 25.5668V23.0073C4.70203 20.4663 6.75788 18.4102 9.29926 18.4102C10.2316 18.4102 10.9847 17.6588 10.9847 16.7293V16.6934C9.11709 15.7695 7.80354 13.8884 7.68923 11.6947C6.90325 11.4636 6.32685 10.7408 6.32685 9.88496V7.64008C6.28108 5.49841 6.89859 3.60123 8.08401 2.21644C9.27084 0.830013 11.0191 -0.0333848 13.214 -0.118464L13.214 -0.118464C14.9335 -0.185002 16.7649 0.263481 18.0417 0.911802L9.95953 7.33794ZM9.95953 7.33794C11.2067 8.41311 12.744 8.98771 14.2776 9.06356L14.2776 9.06356M9.95953 7.33794L14.2776 9.06356M14.2776 9.06356C14.7583 9.08707 15.0435 8.5286 14.7381 8.15348C14.5816 7.96122 14.4735 7.72369 14.438 7.46893M14.2776 9.06356L14.3036 7.38382C14.3482 7.41271 14.393 7.44108 14.438 7.46893M19.5198 7.97657L19.5198 7.9766C19.5429 8.28404 19.3124 8.55211 19.0049 8.57521M19.5198 7.97657L14.4256 7.31359C14.4267 7.36591 14.4309 7.41777 14.438 7.46893M19.5198 7.97657C19.4966 7.66921 19.229 7.43889 18.9213 7.46177L18.9211 7.46178M19.5198 7.97657L18.9211 7.46178M19.0049 8.57521L18.9956 8.45056L19.005 8.57521C19.005 8.57521 19.0049 8.57521 19.0049 8.57521ZM19.0049 8.57521C17.4305 8.69368 15.8306 8.3304 14.438 7.46893M18.9211 7.46178C17.3163 7.58265 15.7004 7.12003 14.3832 6.06602L14.3832 6.06598M18.9211 7.46178L14.3832 6.06598M14.3832 6.06598C14.0967 5.83698 13.6721 5.9421 13.5242 6.27533C13.3129 6.75101 13.2494 7.29257 13.3682 7.82155M14.3832 6.06598L13.3682 7.82155M13.3682 7.82155C12.373 7.6087 11.4567 7.15436 10.6887 6.49221L10.6887 6.49221C9.51699 5.48206 7.69595 6.29513 7.6811 7.83788H7.68109V7.83908L7.68099 10.4362C7.5342 10.2958 7.44348 10.1002 7.44348 9.88485V9.88082C7.44349 9.77565 7.44354 7.65215 7.44334 7.62163H7.44334C7.42179 6.64703 7.56313 4.22616 9.28743 2.56401L9.20068 2.47401L9.28744 2.56401C11.1247 0.792977 13.9699 0.70359 16.2928 1.42232L16.2592 1.43616C16.2592 1.43616 16.2592 1.43617 16.2592 1.43617C15.7262 1.65545 15.837 2.4459 16.4122 2.50753L16.4255 2.38324L16.4122 2.50753L17.1738 2.5891C18.5726 2.73887 19.8119 3.4551 20.623 4.56947C20.0979 5.24101 19.813 6.06425 19.813 6.92923V9.8848C19.813 10.1931 20.0629 10.4431 20.3713 10.4431C20.6796 10.4431 20.9296 10.1931 20.9296 9.8848V6.92923C20.9296 6.20906 21.2074 5.53089 21.7123 5.01872C21.9015 4.82703 21.9238 4.52282 21.7921 4.3103L21.7919 4.31C20.9473 2.95544 19.7061 2.06178 18.2854 1.66803C18.4215 1.40602 18.3322 1.05905 18.0418 0.91186L13.3682 7.82155ZM22.5001 23.0072V25.5667C22.5001 25.875 22.2501 26.125 21.9418 26.125C21.6335 26.125 21.3835 25.875 21.3835 25.5667V23.0072C21.3835 21.0834 19.8269 19.5267 17.9029 19.5267C16.9163 19.5267 16.0202 19.0236 15.5074 18.1815C15.5074 18.1815 15.5074 18.1815 15.5074 18.1815L15.6141 18.1165L22.5001 23.0072ZM22.5001 23.0072C22.5001 20.4662 20.4437 18.4099 17.9029 18.4101C17.3083 18.4101 16.7698 18.1078 16.461 17.6007C16.3006 17.3374 15.957 17.2538 15.6937 17.4144L22.5001 23.0072Z" fill="black" stroke="black" stroke-width="0.25"/>
</g>
<defs>
<clipPath id="clip0">
<rect width="26" height="26" fill="white" transform="translate(0.601013)"/>
</clipPath>
</defs>
</svg>
