<svg width="27" height="26" viewBox="0 0 27 26" fill="none" xmlns="http://www.w3.org/2000/svg">
<g clip-path="url(#clip0)">
<path d="M14.4169 26H12.7852C11.4654 26 10.3916 24.9263 10.3916 23.6065V23.0545C9.83057 22.8752 9.28543 22.6489 8.76172 22.3779L8.3705 22.7691C7.42298 23.7178 5.90518 23.69 4.98517 22.7688L3.83188 21.6155C2.91025 20.6949 2.88374 19.1776 3.83218 18.2302L4.2231 17.8393C3.95208 17.3156 3.72585 16.7706 3.54654 16.2094H2.99455C1.67484 16.2094 0.601074 15.1357 0.601074 13.8159V12.1841C0.601074 10.8643 1.67484 9.79063 2.9946 9.79063H3.54659C3.7259 9.22949 3.95213 8.68441 4.22315 8.1607L3.83193 7.76953C2.88405 6.82266 2.9102 5.30522 3.83223 4.3842L4.98563 3.23086C5.90777 2.30745 7.42521 2.28439 8.37091 3.23116L8.76177 3.62202C9.28548 3.35105 9.83062 3.12477 10.3917 2.94546V2.39347C10.3917 1.07372 11.4654 0 12.7852 0H14.417C15.7367 0 16.8104 1.07372 16.8104 2.39347V2.94552C17.3715 3.12477 17.9167 3.35105 18.4404 3.62207L18.8316 3.23086C19.7791 2.28216 21.2969 2.30999 22.2169 3.23121L23.3702 4.38445C24.2918 5.30507 24.3184 6.82236 23.3699 7.76979L22.979 8.1607C23.25 8.68441 23.4762 9.22944 23.6556 9.79063H24.2076C25.5273 9.79063 26.6011 10.8643 26.6011 12.1841V13.8159C26.6011 15.1357 25.5273 16.2094 24.2076 16.2094H23.6556C23.4762 16.7705 23.25 17.3156 22.979 17.8393L23.3702 18.2305C24.3181 19.1774 24.292 20.6948 23.3699 21.6159L22.2165 22.7692C21.2944 23.6926 19.7769 23.7157 18.8312 22.7689L18.4404 22.378C17.9167 22.649 17.3715 22.8753 16.8104 23.0546V23.6066C16.8104 24.9263 15.7367 26 14.4169 26ZM9.01639 20.7782C9.74393 21.2084 10.527 21.5335 11.3437 21.7443C11.6801 21.8311 11.9151 22.1344 11.9151 22.4818V23.6065C11.9151 24.0863 12.3055 24.4766 12.7852 24.4766H14.417C14.8967 24.4766 15.2871 24.0863 15.2871 23.6065V22.4818C15.2871 22.1344 15.5221 21.8311 15.8585 21.7443C16.6752 21.5335 17.4583 21.2084 18.1858 20.7782C18.4852 20.6011 18.8663 20.6493 19.1122 20.8952L19.9089 21.6919C20.2524 22.0358 20.8039 22.0278 21.139 21.6923L22.2931 20.5382C22.6273 20.2044 22.6385 19.6527 22.2934 19.308L21.4964 18.511C21.2505 18.2652 21.2024 17.884 21.3793 17.5847C21.8096 16.8572 22.1346 16.0741 22.3454 15.2573C22.4322 14.921 22.7356 14.686 23.0829 14.686H24.2076C24.6873 14.686 25.0777 14.2957 25.0777 13.816V12.1841C25.0777 11.7044 24.6873 11.3141 24.2076 11.3141H23.0829C22.7356 11.3141 22.4322 11.0791 22.3454 10.7428C22.1346 9.92596 21.8096 9.14291 21.3793 8.41542C21.2024 8.11611 21.2505 7.73495 21.4964 7.48907L22.2931 6.69236C22.6375 6.34837 22.6285 5.79688 22.2934 5.46218L21.1394 4.30818C20.8049 3.97323 20.2532 3.96343 19.9092 4.30788L19.1123 5.10489C18.8664 5.35082 18.4851 5.39896 18.1859 5.22194C17.4583 4.79167 16.6753 4.46662 15.8585 4.25582C15.5221 4.16904 15.2871 3.86567 15.2871 3.51828V2.39347C15.2871 1.91374 14.8968 1.52344 14.417 1.52344H12.7853C12.3055 1.52344 11.9152 1.91374 11.9152 2.39347V3.51818C11.9152 3.86557 11.6802 4.16894 11.3438 4.25572C10.527 4.46652 9.74398 4.79157 9.01644 5.22184C8.71704 5.39881 8.33592 5.35067 8.09004 5.10479L7.29338 4.30808C6.9499 3.96419 6.39826 3.97216 6.06326 4.30772L4.90915 5.46178C4.57491 5.79561 4.56374 6.34725 4.90885 6.69195L5.70586 7.48897C5.95174 7.73485 5.99988 8.11601 5.82291 8.41532C5.39264 9.14281 5.06764 9.92586 4.85685 10.7427C4.77001 11.079 4.46664 11.314 4.1193 11.314H2.9946C2.51487 11.3141 2.12451 11.7044 2.12451 12.1841V13.8159C2.12451 14.2956 2.51487 14.6859 2.9946 14.6859H4.11925C4.46664 14.6859 4.76996 14.921 4.8568 15.2573C5.06759 16.0741 5.39264 16.8571 5.82286 17.5846C5.99983 17.8839 5.95169 18.2651 5.70581 18.511L4.9091 19.3077C4.5647 19.6517 4.57369 20.2032 4.9088 20.5379L6.0628 21.6919C6.3973 22.0268 6.94898 22.0366 7.29298 21.6922L8.08994 20.8952C8.27113 20.714 8.64807 20.5603 9.01639 20.7782Z" fill="black"/>
<path d="M13.6011 18.6571C10.4818 18.6571 7.94409 16.1193 7.94409 13C7.94409 9.88076 10.4818 7.34302 13.6011 7.34302C16.7205 7.34302 19.2582 9.88076 19.2582 13C19.2582 16.1193 16.7205 18.6571 13.6011 18.6571ZM13.6011 8.86646C11.3218 8.86646 9.46753 10.7208 9.46753 13C9.46753 15.2793 11.3219 17.1336 13.6011 17.1336C15.8804 17.1336 17.7347 15.2793 17.7347 13C17.7347 10.7208 15.8804 8.86646 13.6011 8.86646Z" fill="black"/>
</g>
<defs>
<clipPath id="clip0">
<rect width="26" height="26" fill="white" transform="translate(0.601074)"/>
</clipPath>
</defs>
</svg>
