<svg width="26" height="26" viewBox="0 0 26 26" fill="none" xmlns="http://www.w3.org/2000/svg">
<g clip-path="url(#clip0)">
<path d="M7.93321 11.375H5.22488C4.77638 11.375 4.41238 11.011 4.41238 10.5625C4.41238 10.114 4.77638 9.75 5.22488 9.75H7.93321C8.38171 9.75 8.74571 10.114 8.74571 10.5625C8.74571 11.011 8.38171 11.375 7.93321 11.375Z" fill="black"/>
<path d="M20.9333 11.375H12.8083C12.3598 11.375 11.9958 11.011 11.9958 10.5625C11.9958 10.114 12.3598 9.75 12.8083 9.75H20.9333C21.3818 9.75 21.7458 10.114 21.7458 10.5625C21.7458 11.011 21.3818 11.375 20.9333 11.375Z" fill="black"/>
<path d="M7.93321 15.7083H5.22488C4.77638 15.7083 4.41238 15.3443 4.41238 14.8958C4.41238 14.4473 4.77638 14.0833 5.22488 14.0833H7.93321C8.38171 14.0833 8.74571 14.4473 8.74571 14.8958C8.74571 15.3443 8.38171 15.7083 7.93321 15.7083Z" fill="black"/>
<path d="M20.9333 15.7083H12.8083C12.3598 15.7083 11.9958 15.3443 11.9958 14.8958C11.9958 14.4473 12.3598 14.0833 12.8083 14.0833H20.9333C21.3818 14.0833 21.7458 14.4473 21.7458 14.8958C21.7458 15.3443 21.3818 15.7083 20.9333 15.7083Z" fill="black"/>
<path d="M7.93321 20.0417H5.22488C4.77638 20.0417 4.41238 19.6777 4.41238 19.2292C4.41238 18.7807 4.77638 18.4167 5.22488 18.4167H7.93321C8.38171 18.4167 8.74571 18.7807 8.74571 19.2292C8.74571 19.6777 8.38171 20.0417 7.93321 20.0417Z" fill="black"/>
<path d="M20.9333 20.0417H12.8083C12.3598 20.0417 11.9958 19.6777 11.9958 19.2292C11.9958 18.7807 12.3598 18.4167 12.8083 18.4167H20.9333C21.3818 18.4167 21.7458 18.7807 21.7458 19.2292C21.7458 19.6777 21.3818 20.0417 20.9333 20.0417Z" fill="black"/>
<path d="M23.0208 24.9166H2.97917C1.33575 24.9166 0 23.5809 0 21.9375V4.06248C0 2.41906 1.33575 1.08331 2.97917 1.08331H23.0208C24.6643 1.08331 26 2.41906 26 4.06248V21.9375C26 23.5809 24.6643 24.9166 23.0208 24.9166ZM2.97917 2.70831C2.23275 2.70831 1.625 3.31606 1.625 4.06248V21.9375C1.625 22.6839 2.23275 23.2916 2.97917 23.2916H23.0208C23.7673 23.2916 24.375 22.6839 24.375 21.9375V4.06248C24.375 3.31606 23.7673 2.70831 23.0208 2.70831H2.97917Z" fill="black"/>
<path d="M25.1875 6.5H0.8125C0.364 6.5 0 6.136 0 5.6875C0 5.239 0.364 4.875 0.8125 4.875H25.1875C25.636 4.875 26 5.239 26 5.6875C26 6.136 25.636 6.5 25.1875 6.5Z" fill="black"/>
</g>
<defs>
<clipPath id="clip0">
<rect width="26" height="26" fill="white"/>
</clipPath>
</defs>
</svg>
