<svg width="102" height="47" viewBox="0 0 102 47" fill="none" xmlns="http://www.w3.org/2000/svg">
<path d="M14 39L3 39L3 3L31.6072 3L15.8189 18.3397C14.6561 19.4695 14 21.0218 14 22.643L14 39Z" stroke="white" stroke-width="6"/>
<path d="M21.6094 34.543C21.6094 33.2773 21.8555 32.1523 22.3477 31.168C22.8398 30.1758 23.5469 29.4141 24.4688 28.8828C25.3906 28.3516 26.4727 28.0859 27.7148 28.0859C29.6133 28.0859 31.1094 28.6758 32.2031 29.8555C33.2969 31.0273 33.8438 32.625 33.8438 34.6484V34.7891C33.8438 36.7656 33.293 38.3359 32.1914 39.5C31.0977 40.6562 29.6133 41.2344 27.7383 41.2344C25.9336 41.2344 24.4844 40.6953 23.3906 39.6172C22.2969 38.5312 21.707 37.0625 21.6211 35.2109L21.6094 34.543ZM25.5586 34.7891C25.5586 35.9609 25.7422 36.8203 26.1094 37.3672C26.4766 37.9141 27.0195 38.1875 27.7383 38.1875C29.1445 38.1875 29.8633 37.1055 29.8945 34.9414V34.543C29.8945 32.2695 29.168 31.1328 27.7148 31.1328C26.3945 31.1328 25.6797 32.1133 25.5703 34.0742L25.5586 34.7891ZM47.3555 34.7539C47.3555 36.7227 46.9102 38.2969 46.0195 39.4766C45.1367 40.6484 43.9414 41.2344 42.4336 41.2344C41.2695 41.2344 40.3125 40.8086 39.5625 39.957V45.875H35.6133V28.3203H39.3047L39.4219 29.4922C40.1797 28.5547 41.1758 28.0859 42.4102 28.0859C43.9727 28.0859 45.1875 28.6641 46.0547 29.8203C46.9219 30.9688 47.3555 32.5508 47.3555 34.5664V34.7539ZM43.4062 34.5078C43.4062 32.2578 42.75 31.1328 41.4375 31.1328C40.5 31.1328 39.875 31.4688 39.5625 32.1406V37.1328C39.9062 37.8359 40.5391 38.1875 41.4609 38.1875C42.7188 38.1875 43.3672 37.1016 43.4062 34.9297V34.5078ZM53.1094 31.8008H55.1367C56.3086 31.8008 57.3398 31.9922 58.2305 32.375C59.1211 32.7578 59.8008 33.3008 60.2695 34.0039C60.7383 34.707 60.9727 35.5234 60.9727 36.4531C60.9727 37.8203 60.4414 38.9219 59.3789 39.7578C58.3242 40.5859 56.8828 41 55.0547 41H49.1367V28.3203H53.1094V31.8008ZM53.1094 34.8359V37.9766H55.1133C55.7148 37.9766 56.1836 37.8398 56.5195 37.5664C56.8633 37.2852 57.0352 36.9062 57.0352 36.4297C57.0352 35.9609 56.8828 35.5781 56.5781 35.2812C56.2734 34.9844 55.7852 34.8359 55.1133 34.8359H53.1094ZM67.8516 36.5703H66.668V41H62.707V28.3203H66.668V32.8789H67.8047L69.8203 28.3203H74.8828L71.1797 34.1797H71.1914L75.2578 41H69.9023L67.8516 36.5703ZM83.5781 28.3203H87.5391V41H83.5781V33.6172L80.0977 41H76.125V28.3203H80.0977V35.6797L83.5781 28.3203ZM97.0312 28.3203H100.992V41H97.0312V33.6172L93.5508 41H89.5781V28.3203H93.5508V35.6797L97.0312 28.3203ZM99.7148 22.9766C99.7148 24.0469 99.3203 24.9141 98.5312 25.5781C97.7422 26.2422 96.6914 26.5742 95.3789 26.5742C94.0664 26.5742 93.0156 26.2422 92.2266 25.5781C91.4375 24.9141 91.043 24.0469 91.043 22.9766H93.7266C93.7266 23.4453 93.8711 23.8125 94.1602 24.0781C94.457 24.3359 94.8633 24.4648 95.3789 24.4648C95.8945 24.4648 96.293 24.3398 96.5742 24.0898C96.8633 23.832 97.0078 23.4609 97.0078 22.9766H99.7148Z" fill="white"/>
</svg>
